<svg width="559" height="112" viewBox="0 0 559 112" fill="none" xmlns="http://www.w3.org/2000/svg">
<g filter="url(#filter0_d_118_87)">
<path d="M95.6113 19.6562C96.8945 19.7038 97.9876 20.179 98.8906 21.082C99.7936 21.9375 100.269 23.0068 100.316 24.29V36.1953H123.485V24.29C123.533 22.9593 124.032 21.8662 124.982 21.0107C125.933 20.1077 127.074 19.6562 128.404 19.6562C129.687 19.7038 130.781 20.179 131.684 21.082C132.587 21.9375 133.062 23.0068 133.109 24.29V59.2217C132.824 62.0732 131.256 63.6178 128.404 63.8555C127.074 63.8555 125.909 63.4277 124.911 62.5723C123.961 61.6693 123.485 60.5524 123.485 59.2217V45.748H100.316V59.2217C100.031 62.0732 98.4628 63.6178 95.6113 63.8555C94.2806 63.8555 93.1162 63.4277 92.1181 62.5723C91.1676 61.6693 90.6923 60.5524 90.6923 59.2217V24.29C90.7399 22.9593 91.2389 21.8662 92.1894 21.0107C93.1399 20.1077 94.2806 19.6562 95.6113 19.6562ZM153.438 29.7793C154.721 29.8268 155.814 30.3021 156.717 31.2051C157.62 32.0605 158.096 33.1299 158.143 34.4131V59.0791C157.858 61.9307 156.29 63.4753 153.438 63.7129C152.107 63.7129 150.943 63.2852 149.945 62.4297C148.994 61.5267 148.519 60.4098 148.519 59.0791V34.4131C148.567 33.0824 149.066 31.9893 150.016 31.1338C150.967 30.2308 152.107 29.7793 153.438 29.7793ZM147.45 20.5117C147.45 19.181 148.02 18.0404 149.161 17.0898C150.301 16.1393 151.68 15.6641 153.296 15.6641C154.911 15.6641 156.29 16.1393 157.43 17.0898C158.571 18.0404 159.141 19.181 159.141 20.5117C159.141 21.89 158.571 23.0544 157.43 24.0049C156.29 24.9554 154.911 25.4307 153.296 25.4307C151.68 25.4307 150.301 24.9554 149.161 24.0049C148.02 23.0544 147.45 21.89 147.45 20.5117ZM218.679 34.627C218.679 35.8151 218.204 36.8132 217.253 37.6211C216.35 38.3815 215.233 38.7617 213.903 38.7617H183.747C183.13 38.7617 182.631 38.8805 182.25 39.1182C181.87 39.3558 181.585 39.6172 181.395 39.9023C181.205 40.14 181.11 40.3538 181.11 40.5439C181.11 40.7816 181.205 41.043 181.395 41.3281C181.585 41.5658 181.87 41.8034 182.25 42.041C182.631 42.2311 183.13 42.3499 183.747 42.3975H207.059C210.053 42.445 212.524 43.0391 214.473 44.1797C216.422 45.2728 217.8 46.5798 218.608 48.1006C219.463 49.5739 219.891 51.071 219.891 52.5918C219.891 54.0651 219.463 55.5622 218.608 57.083C217.752 58.5563 216.35 59.8633 214.402 61.0039C212.501 62.097 210.053 62.6436 207.059 62.6436C206.536 62.6911 206.156 62.7148 205.918 62.7148H178.258C176.927 62.7148 175.787 62.3346 174.836 61.5742C173.933 60.7663 173.482 59.792 173.482 58.6514C173.482 57.4632 173.957 56.4652 174.908 55.6572C175.811 54.8968 176.927 54.5166 178.258 54.5166H207.629C208.342 54.5641 208.912 54.4691 209.34 54.2314C209.815 53.9938 210.172 53.7324 210.409 53.4473C210.647 53.1621 210.766 52.877 210.766 52.5918C210.766 52.4492 210.647 52.2116 210.409 51.8789C210.172 51.4987 209.815 51.2135 209.34 51.0234C208.912 50.7858 208.342 50.6432 207.629 50.5957H184.246C181.49 50.5482 179.209 49.9779 177.403 48.8848C175.597 47.7441 174.313 46.4372 173.553 44.9639C172.793 43.4906 172.412 42.0173 172.412 40.5439C172.412 39.0706 172.793 37.6211 173.553 36.1953C174.361 34.722 175.644 33.4626 177.403 32.417C179.209 31.3239 181.49 30.7298 184.246 30.6348C184.722 30.5872 185.078 30.5635 185.316 30.5635H213.903C215.233 30.5635 216.35 30.9674 217.253 31.7754C218.204 32.5358 218.679 33.4863 218.679 34.627ZM249.844 19.6562C251.174 19.6562 252.315 20.1077 253.266 21.0107C254.216 21.8662 254.715 22.9593 254.763 24.29V30.4922H279.001C280.332 30.4922 281.472 30.9437 282.423 31.8467C283.326 32.7972 283.777 33.9378 283.777 35.2686C283.777 36.5993 283.302 37.7399 282.352 38.6904C281.449 39.5934 280.332 40.0449 279.001 40.0449H254.763V41.4707C254.715 43.4193 254.834 45.2253 255.119 46.8887C255.452 48.5046 256.212 49.9541 257.4 51.2373C258.589 52.5205 260.086 53.2096 261.892 53.3047H279.286C280.617 53.3522 281.71 53.8512 282.565 54.8018C283.468 55.7523 283.92 56.8929 283.92 58.2236C283.872 59.5068 283.397 60.5999 282.494 61.5029C281.639 62.3584 280.569 62.8099 279.286 62.8574H259.468C256.141 62.6673 253.384 61.5505 251.198 59.5068C249.06 57.4157 247.515 54.873 246.564 51.8789C245.661 48.8848 245.186 45.7005 245.139 42.3262V40.0449H236.94C235.61 40.0449 234.493 39.5697 233.59 38.6191C232.639 37.7161 232.164 36.5993 232.164 35.2686C232.164 33.9378 232.616 32.821 233.519 31.918C234.469 30.9674 235.61 30.4922 236.94 30.4922H245.139V24.29C245.186 23.0068 245.661 21.9375 246.564 21.082C247.467 20.179 248.561 19.7038 249.844 19.6562ZM312.091 62.8574C307.908 62.7148 304.748 61.7406 302.609 59.9346C300.47 58.0811 298.926 56.0137 297.975 53.7324C297.025 51.4036 296.549 49.0511 296.549 46.6748C296.549 44.2035 297.001 41.8271 297.904 39.5459C298.855 37.2171 300.399 35.1497 302.538 33.3438C304.724 31.4902 307.48 30.5397 310.807 30.4922H333.905C337.232 30.5397 339.965 31.4902 342.103 33.3438C344.289 35.1497 345.834 37.2171 346.737 39.5459C347.688 41.8271 348.163 44.2035 348.163 46.6748C348.163 49.0511 347.688 51.4036 346.737 53.7324C345.786 56.0137 344.242 58.0811 342.103 59.9346C339.965 61.7406 336.804 62.7148 332.622 62.8574H312.091ZM310.522 40.0449C309.619 40.0449 308.835 40.4251 308.17 41.1855C307.504 41.8984 307.005 42.7539 306.673 43.752C306.387 44.7025 306.245 45.653 306.245 46.6035C306.245 47.6016 306.387 48.5996 306.673 49.5977C307.005 50.5482 307.504 51.4036 308.17 52.1641C308.835 52.877 309.619 53.2572 310.522 53.3047H334.19C335.093 53.2572 335.877 52.877 336.543 52.1641C337.208 51.4036 337.683 50.5482 337.968 49.5977C338.301 48.5996 338.467 47.6016 338.467 46.6035C338.467 45.653 338.301 44.7025 337.968 43.752C337.683 42.7539 337.208 41.8984 336.543 41.1855C335.877 40.4251 335.093 40.0449 334.19 40.0449H310.522ZM364.428 39.4746C365.331 37.1934 366.852 35.1497 368.991 33.3438C371.177 31.4902 373.933 30.5397 377.26 30.4922H404.065C405.396 30.4922 406.512 30.9674 407.415 31.918C408.366 32.821 408.841 33.9378 408.841 35.2686C408.841 36.5993 408.366 37.7399 407.415 38.6904C406.512 39.5934 405.396 40.0449 404.065 40.0449H376.975C376.072 40.0449 375.288 40.4251 374.622 41.1855C373.957 41.8984 373.434 42.7539 373.054 43.752C372.721 44.75 372.555 45.7005 372.555 46.6035V59.0791C372.27 61.9307 370.702 63.4753 367.85 63.7129C366.519 63.7129 365.355 63.2852 364.357 62.4297C363.406 61.5267 362.931 60.4098 362.931 59.0791V46.6748H363.002C363.002 44.2035 363.478 41.8034 364.428 39.4746ZM427.245 29.6367C428.576 29.6367 429.717 30.0882 430.667 30.9912C431.618 31.8467 432.117 32.9398 432.164 34.2705V41.4707C432.117 43.4193 432.235 45.2253 432.521 46.8887C432.853 48.5046 433.614 49.9541 434.802 51.2373C435.99 52.5205 437.487 53.2096 439.293 53.3047H458.327V34.4131C458.327 33.0824 458.802 31.9893 459.753 31.1338C460.751 30.2308 461.915 29.7793 463.246 29.7793C466.098 30.0169 467.666 31.5615 467.951 34.4131V57.6533C467.951 61.4554 467.428 65.0436 466.383 68.418C465.432 71.4121 463.864 73.931 461.678 75.9746C459.539 78.0658 456.806 79.2064 453.48 79.3965H428.814C427.53 79.349 426.437 78.8737 425.534 77.9707C424.679 77.1152 424.227 76.0459 424.18 74.7627C424.18 73.432 424.607 72.2913 425.463 71.3408C426.366 70.3903 427.483 69.8913 428.814 69.8438H451.056C452.862 69.7487 454.359 69.0596 455.547 67.7764C456.735 66.4932 457.496 64.9961 457.828 63.2852C457.876 63.1426 457.899 63 457.899 62.8574H436.869C433.542 62.6673 430.786 61.5505 428.6 59.5068C426.461 57.4157 424.916 54.873 423.966 51.8789C423.063 48.8848 422.588 45.7005 422.54 42.3262V34.2705C422.588 32.9873 423.063 31.918 423.966 31.0625C424.869 30.1595 425.962 29.6842 427.245 29.6367Z" fill="white"/>
</g>
<path d="M192.923 85.339C192.498 85.339 192.131 85.194 191.821 84.904C191.512 84.614 191.357 84.2757 191.357 83.889C191.357 83.483 191.512 83.135 191.821 82.845C192.131 82.555 192.498 82.41 192.923 82.41C193.349 82.41 193.716 82.555 194.025 82.845C194.354 83.135 194.518 83.483 194.518 83.889C194.518 84.2757 194.354 84.614 194.025 84.904C193.716 85.194 193.349 85.339 192.923 85.339ZM188.95 111.468C188.641 111.468 188.39 111.381 188.196 111.207C188.003 111.033 187.906 110.801 187.906 110.511C187.906 110.24 188.003 110.018 188.196 109.844C188.39 109.689 188.641 109.612 188.95 109.612C189.743 109.612 190.342 109.515 190.748 109.322C191.154 109.148 191.435 108.829 191.589 108.365C191.763 107.92 191.85 107.253 191.85 106.364L191.879 89.66C191.879 89.2927 191.966 89.0123 192.14 88.819C192.314 88.6063 192.575 88.5 192.923 88.5C193.271 88.5 193.532 88.6063 193.706 88.819C193.9 89.0123 193.996 89.2927 193.996 89.66L193.967 106.364C193.967 108.046 193.59 109.312 192.836 110.163C192.082 111.033 190.787 111.468 188.95 111.468ZM224.185 103.29C222.29 103.29 220.801 102.749 219.719 101.666C218.655 100.583 218.124 99.0753 218.124 97.142V89.66C218.124 89.2927 218.22 89.0123 218.414 88.819C218.607 88.6063 218.868 88.5 219.197 88.5C219.525 88.5 219.777 88.6063 219.951 88.819C220.144 89.0123 220.241 89.2927 220.241 89.66V97.142C220.241 98.5147 220.608 99.578 221.343 100.332C222.077 101.086 223.102 101.463 224.417 101.463C225.461 101.463 226.389 101.231 227.201 100.767C228.013 100.303 228.641 99.6553 229.086 98.824C229.55 97.9927 229.782 97.0357 229.782 95.953V89.66C229.782 89.2927 229.869 89.0123 230.043 88.819C230.236 88.6063 230.507 88.5 230.855 88.5C231.183 88.5 231.435 88.6063 231.609 88.819C231.802 89.0123 231.899 89.2927 231.899 89.66V102.13C231.899 102.497 231.802 102.787 231.609 103C231.435 103.193 231.183 103.29 230.855 103.29C230.507 103.29 230.236 103.184 230.043 102.971C229.869 102.758 229.782 102.478 229.782 102.13V100.419C229.066 101.347 228.235 102.062 227.288 102.565C226.34 103.048 225.306 103.29 224.185 103.29ZM256.616 103.29C256.288 103.29 256.027 103.193 255.833 103C255.659 102.787 255.572 102.497 255.572 102.13V89.66C255.572 89.2927 255.659 89.0123 255.833 88.819C256.007 88.6063 256.268 88.5 256.616 88.5C256.945 88.5 257.196 88.6063 257.37 88.819C257.564 89.0123 257.66 89.2927 257.66 89.66V91.371C258.376 90.4237 259.236 89.7083 260.241 89.225C261.266 88.7417 262.387 88.5 263.605 88.5C265.442 88.5 266.853 89.0123 267.839 90.037C268.845 91.0617 269.347 92.531 269.347 94.445V102.13C269.347 102.497 269.251 102.787 269.057 103C268.864 103.193 268.603 103.29 268.274 103.29C267.926 103.29 267.665 103.193 267.491 103C267.317 102.787 267.23 102.497 267.23 102.13V94.445C267.23 91.6997 265.935 90.327 263.344 90.327C261.643 90.327 260.27 90.8297 259.226 91.835C258.202 92.8403 257.689 94.1743 257.689 95.837V102.13C257.689 102.478 257.593 102.758 257.399 102.971C257.225 103.184 256.964 103.29 256.616 103.29ZM293.978 103.29C293.649 103.29 293.388 103.193 293.195 103C293.021 102.787 292.934 102.497 292.934 102.13V82.149C292.934 81.7817 293.021 81.5013 293.195 81.308C293.388 81.0953 293.649 80.989 293.978 80.989C294.306 80.989 294.567 81.0953 294.761 81.308C294.954 81.5013 295.051 81.7817 295.051 82.149V95.141L304.679 88.645C304.872 88.5097 305.075 88.442 305.288 88.442C305.616 88.442 305.858 88.5773 306.013 88.848C306.109 88.9833 306.158 89.167 306.158 89.399C306.158 89.747 306.003 90.0177 305.694 90.211L300.503 93.662C302.185 94.8027 303.49 96.0593 304.418 97.432C305.346 98.7853 305.984 100.361 306.332 102.159C306.39 102.468 306.332 102.739 306.158 102.971C305.984 103.184 305.732 103.29 305.404 103.29C304.766 103.29 304.389 103.019 304.273 102.478C303.867 100.622 303.267 99.1527 302.475 98.07C301.701 96.968 300.474 95.8757 298.792 94.793L295.051 97.316V102.13C295.051 102.478 294.954 102.758 294.761 102.971C294.587 103.184 294.326 103.29 293.978 103.29ZM330.867 85.426C330.441 85.426 330.074 85.2907 329.765 85.02C329.475 84.73 329.33 84.382 329.33 83.976C329.33 83.57 329.475 83.222 329.765 82.932C330.074 82.642 330.441 82.497 330.867 82.497C331.292 82.497 331.659 82.6517 331.969 82.961C332.297 83.251 332.462 83.5893 332.462 83.976C332.462 84.3627 332.297 84.701 331.969 84.991C331.659 85.281 331.292 85.426 330.867 85.426ZM330.867 103.29C330.538 103.29 330.277 103.193 330.084 103C329.91 102.787 329.823 102.497 329.823 102.13V89.66C329.823 89.2927 329.91 89.0123 330.084 88.819C330.277 88.6063 330.538 88.5 330.867 88.5C331.215 88.5 331.476 88.6063 331.65 88.819C331.843 89.0123 331.94 89.2927 331.94 89.66V102.13C331.94 102.497 331.843 102.787 331.65 103C331.476 103.193 331.215 103.29 330.867 103.29ZM363.231 103.29C360.717 103.29 358.774 102.642 357.402 101.347C356.029 100.052 355.343 98.215 355.343 95.837C355.343 93.5557 356.039 91.7673 357.431 90.472C358.823 89.1573 360.727 88.5 363.144 88.5C364.632 88.5 365.957 88.7417 367.117 89.225C368.277 89.689 369.176 90.356 369.814 91.226C370.471 92.0767 370.8 93.053 370.8 94.155C370.8 94.967 370.568 95.5953 370.104 96.04C369.659 96.4847 369.04 96.707 368.248 96.707H357.518C357.518 98.1957 358.02 99.3653 359.026 100.216C360.031 101.047 361.433 101.463 363.231 101.463C364.333 101.463 365.28 101.347 366.073 101.115C366.865 100.864 367.61 100.467 368.306 99.926C368.673 99.6167 368.973 99.462 369.205 99.462C369.379 99.462 369.543 99.5393 369.698 99.694C369.968 99.926 370.104 100.168 370.104 100.419C370.104 100.612 369.988 100.825 369.756 101.057C368.963 101.811 368.035 102.372 366.972 102.739C365.908 103.106 364.661 103.29 363.231 103.29ZM367.61 94.996C367.958 94.996 368.219 94.9283 368.393 94.793C368.567 94.6383 368.654 94.3677 368.654 93.981C368.654 93.285 368.422 92.6567 367.958 92.096C367.494 91.5353 366.836 91.1003 365.986 90.791C365.154 90.4817 364.207 90.327 363.144 90.327C361.423 90.327 360.06 90.7523 359.055 91.603C358.069 92.4343 357.576 93.5653 357.576 94.996H367.61Z" fill="white"/>
<defs>
<filter id="filter0_d_118_87" x="90.6924" y="15.6641" width="379.259" height="64.7324" filterUnits="userSpaceOnUse" color-interpolation-filters="sRGB">
<feFlood flood-opacity="0" result="BackgroundImageFix"/>
<feColorMatrix in="SourceAlpha" type="matrix" values="0 0 0 0 0 0 0 0 0 0 0 0 0 0 0 0 0 0 127 0" result="hardAlpha"/>
<feOffset dx="2" dy="1"/>
<feComposite in2="hardAlpha" operator="out"/>
<feColorMatrix type="matrix" values="0 0 0 0 0.776471 0 0 0 0 0.180392 0 0 0 0 0.180392 0 0 0 1 0"/>
<feBlend mode="normal" in2="BackgroundImageFix" result="effect1_dropShadow_118_87"/>
<feBlend mode="normal" in="SourceGraphic" in2="effect1_dropShadow_118_87" result="shape"/>
</filter>
</defs>
</svg>
